<mxfile host="app.diagrams.net" modified="2023-12-29T23:11:27.701Z" agent="Mozilla/5.0 (Windows NT 10.0; Win64; x64; rv:121.0) Gecko/20100101 Firefox/121.0" etag="zJuEvIZQrRx_MEoISfuM" version="22.1.16" type="device">
  <diagram name="Page-1" id="JyYrX4iQztOFAPufU9wR">
    <mxGraphModel dx="1065" dy="1090" grid="1" gridSize="10" guides="1" tooltips="1" connect="1" arrows="1" fold="1" page="1" pageScale="1" pageWidth="850" pageHeight="1100" math="0" shadow="0">
      <root>
        <mxCell id="0" />
        <mxCell id="1" parent="0" />
        <mxCell id="RIB-wG14Dxrx7R3ly12y-6" value="" style="shape=process;whiteSpace=wrap;html=1;backgroundOutline=1;" vertex="1" parent="1">
          <mxGeometry x="30" y="20" width="420" height="510" as="geometry" />
        </mxCell>
        <mxCell id="RIB-wG14Dxrx7R3ly12y-2" value="ELR_Input_Data" style="shape=document;whiteSpace=wrap;html=1;boundedLbl=1;" vertex="1" parent="1">
          <mxGeometry x="180" y="80" width="120" height="80" as="geometry" />
        </mxCell>
        <mxCell id="RIB-wG14Dxrx7R3ly12y-5" value="" style="group" vertex="1" connectable="0" parent="1">
          <mxGeometry x="550" y="140" width="150" height="110" as="geometry" />
        </mxCell>
        <mxCell id="RIB-wG14Dxrx7R3ly12y-3" value="" style="ellipse;shape=cloud;whiteSpace=wrap;html=1;" vertex="1" parent="RIB-wG14Dxrx7R3ly12y-5">
          <mxGeometry width="120" height="80" as="geometry" />
        </mxCell>
        <mxCell id="RIB-wG14Dxrx7R3ly12y-4" value="MongoDB" style="shape=cylinder3;whiteSpace=wrap;html=1;boundedLbl=1;backgroundOutline=1;size=15;" vertex="1" parent="RIB-wG14Dxrx7R3ly12y-5">
          <mxGeometry x="60" y="30" width="90" height="80" as="geometry" />
        </mxCell>
        <mxCell id="RIB-wG14Dxrx7R3ly12y-7" value="" style="endArrow=classic;html=1;rounded=0;entryX=1;entryY=0.5;entryDx=0;entryDy=0;fillColor=#0050ef;strokeColor=#001DBC;strokeWidth=2;" edge="1" parent="1" source="RIB-wG14Dxrx7R3ly12y-3" target="RIB-wG14Dxrx7R3ly12y-2">
          <mxGeometry width="50" height="50" relative="1" as="geometry">
            <mxPoint x="390" y="580" as="sourcePoint" />
            <mxPoint x="440" y="530" as="targetPoint" />
          </mxGeometry>
        </mxCell>
        <mxCell id="RIB-wG14Dxrx7R3ly12y-8" value="&lt;div&gt;SSS&lt;/div&gt;&lt;div&gt;Data&lt;br&gt;&lt;/div&gt;" style="shape=internalStorage;whiteSpace=wrap;html=1;backgroundOutline=1;" vertex="1" parent="1">
          <mxGeometry x="110" y="225" width="80" height="80" as="geometry" />
        </mxCell>
        <mxCell id="RIB-wG14Dxrx7R3ly12y-9" value="&lt;div&gt;Gov&lt;/div&gt;&lt;div&gt;Data&lt;br&gt;&lt;/div&gt;" style="shape=internalStorage;whiteSpace=wrap;html=1;backgroundOutline=1;" vertex="1" parent="1">
          <mxGeometry x="270" y="225" width="80" height="80" as="geometry" />
        </mxCell>
        <mxCell id="RIB-wG14Dxrx7R3ly12y-12" value="Encoded SSS Data" style="shape=document;whiteSpace=wrap;html=1;boundedLbl=1;" vertex="1" parent="1">
          <mxGeometry x="90" y="390" width="120" height="80" as="geometry" />
        </mxCell>
        <mxCell id="RIB-wG14Dxrx7R3ly12y-13" value="Encoded Gov Data" style="shape=document;whiteSpace=wrap;html=1;boundedLbl=1;" vertex="1" parent="1">
          <mxGeometry x="250" y="390" width="120" height="80" as="geometry" />
        </mxCell>
        <mxCell id="RIB-wG14Dxrx7R3ly12y-18" value="" style="endArrow=classic;html=1;rounded=0;exitX=0.5;exitY=1;exitDx=0;exitDy=0;entryX=0.5;entryY=0;entryDx=0;entryDy=0;fillColor=#6a00ff;strokeColor=#3700CC;strokeWidth=2;" edge="1" parent="1" source="RIB-wG14Dxrx7R3ly12y-8" target="RIB-wG14Dxrx7R3ly12y-12">
          <mxGeometry width="50" height="50" relative="1" as="geometry">
            <mxPoint x="390" y="580" as="sourcePoint" />
            <mxPoint x="440" y="530" as="targetPoint" />
          </mxGeometry>
        </mxCell>
        <mxCell id="RIB-wG14Dxrx7R3ly12y-19" value="" style="endArrow=classic;html=1;rounded=0;exitX=0.5;exitY=1;exitDx=0;exitDy=0;entryX=0.5;entryY=0;entryDx=0;entryDy=0;fillColor=#6a00ff;strokeColor=#3700CC;strokeWidth=2;" edge="1" parent="1" source="RIB-wG14Dxrx7R3ly12y-9" target="RIB-wG14Dxrx7R3ly12y-13">
          <mxGeometry width="50" height="50" relative="1" as="geometry">
            <mxPoint x="160" y="315" as="sourcePoint" />
            <mxPoint x="160" y="400" as="targetPoint" />
          </mxGeometry>
        </mxCell>
        <mxCell id="RIB-wG14Dxrx7R3ly12y-20" style="edgeStyle=orthogonalEdgeStyle;rounded=0;orthogonalLoop=1;jettySize=auto;html=1;exitX=0.5;exitY=1;exitDx=0;exitDy=0;" edge="1" parent="1" source="RIB-wG14Dxrx7R3ly12y-6" target="RIB-wG14Dxrx7R3ly12y-6">
          <mxGeometry relative="1" as="geometry" />
        </mxCell>
        <mxCell id="RIB-wG14Dxrx7R3ly12y-24" value="" style="swimlane;startSize=0;strokeWidth=1;" vertex="1" parent="1">
          <mxGeometry x="10" y="10" width="720" height="570" as="geometry" />
        </mxCell>
        <mxCell id="RIB-wG14Dxrx7R3ly12y-25" value="Initial Analysis Notebook" style="text;html=1;strokeColor=none;fillColor=none;align=center;verticalAlign=middle;whiteSpace=wrap;rounded=0;fontStyle=1" vertex="1" parent="RIB-wG14Dxrx7R3ly12y-24">
          <mxGeometry x="150" y="20" width="180" height="30" as="geometry" />
        </mxCell>
        <mxCell id="RIB-wG14Dxrx7R3ly12y-26" value="" style="shape=image;html=1;verticalLabelPosition=bottom;verticalAlign=top;imageAspect=1;aspect=fixed;image=img/clipart/Gear_128x128.png" vertex="1" parent="RIB-wG14Dxrx7R3ly12y-24">
          <mxGeometry x="80" y="30" width="52" height="61" as="geometry" />
        </mxCell>
        <mxCell id="RIB-wG14Dxrx7R3ly12y-27" value="" style="shape=image;html=1;verticalLabelPosition=bottom;verticalAlign=top;imageAspect=1;aspect=fixed;image=img/clipart/Gear_128x128.png" vertex="1" parent="RIB-wG14Dxrx7R3ly12y-24">
          <mxGeometry x="110" y="320" width="34.95" height="41" as="geometry" />
        </mxCell>
        <mxCell id="RIB-wG14Dxrx7R3ly12y-29" value="" style="shape=image;html=1;verticalLabelPosition=bottom;verticalAlign=top;imageAspect=1;aspect=fixed;image=img/clipart/Gear_128x128.png" vertex="1" parent="RIB-wG14Dxrx7R3ly12y-24">
          <mxGeometry x="270" y="320" width="34.95" height="41" as="geometry" />
        </mxCell>
        <mxCell id="RIB-wG14Dxrx7R3ly12y-30" value="" style="edgeStyle=elbowEdgeStyle;elbow=vertical;endArrow=classic;html=1;curved=0;rounded=0;endSize=8;startSize=8;exitX=0.45;exitY=0.9;exitDx=0;exitDy=0;exitPerimeter=0;fillColor=#0050ef;strokeColor=#001DBC;strokeWidth=2;" edge="1" parent="1" source="RIB-wG14Dxrx7R3ly12y-12">
          <mxGeometry width="50" height="50" relative="1" as="geometry">
            <mxPoint x="240" y="690" as="sourcePoint" />
            <mxPoint x="680" y="250" as="targetPoint" />
            <Array as="points">
              <mxPoint x="410" y="550" />
            </Array>
          </mxGeometry>
        </mxCell>
        <mxCell id="RIB-wG14Dxrx7R3ly12y-31" value="" style="edgeStyle=elbowEdgeStyle;elbow=horizontal;endArrow=classic;html=1;curved=0;rounded=0;endSize=8;startSize=8;exitX=0.5;exitY=0.875;exitDx=0;exitDy=0;exitPerimeter=0;entryX=0.3;entryY=0.963;entryDx=0;entryDy=0;entryPerimeter=0;fillColor=#0050ef;strokeColor=#001DBC;strokeWidth=2;" edge="1" parent="1" source="RIB-wG14Dxrx7R3ly12y-13" target="RIB-wG14Dxrx7R3ly12y-4">
          <mxGeometry width="50" height="50" relative="1" as="geometry">
            <mxPoint x="530" y="500" as="sourcePoint" />
            <mxPoint x="580" y="450" as="targetPoint" />
            <Array as="points">
              <mxPoint x="470" y="510" />
            </Array>
          </mxGeometry>
        </mxCell>
        <mxCell id="RIB-wG14Dxrx7R3ly12y-33" value="" style="edgeStyle=elbowEdgeStyle;elbow=vertical;endArrow=classic;html=1;curved=0;rounded=0;endSize=8;startSize=8;entryX=0.5;entryY=0;entryDx=0;entryDy=0;exitX=0.533;exitY=0.813;exitDx=0;exitDy=0;exitPerimeter=0;fillColor=#6a00ff;strokeColor=#3700CC;strokeWidth=2;" edge="1" parent="1" source="RIB-wG14Dxrx7R3ly12y-2" target="RIB-wG14Dxrx7R3ly12y-9">
          <mxGeometry width="50" height="50" relative="1" as="geometry">
            <mxPoint x="260" y="220" as="sourcePoint" />
            <mxPoint x="310" y="170" as="targetPoint" />
            <Array as="points">
              <mxPoint x="270" y="180" />
            </Array>
          </mxGeometry>
        </mxCell>
        <mxCell id="RIB-wG14Dxrx7R3ly12y-34" value="" style="edgeStyle=elbowEdgeStyle;elbow=vertical;endArrow=classic;html=1;curved=0;rounded=0;endSize=8;startSize=8;entryX=0.5;entryY=0;entryDx=0;entryDy=0;fillColor=#6a00ff;strokeColor=#3700CC;strokeWidth=2;" edge="1" parent="1" target="RIB-wG14Dxrx7R3ly12y-8">
          <mxGeometry width="50" height="50" relative="1" as="geometry">
            <mxPoint x="240" y="150" as="sourcePoint" />
            <mxPoint x="320" y="235" as="targetPoint" />
            <Array as="points">
              <mxPoint x="200" y="180" />
            </Array>
          </mxGeometry>
        </mxCell>
      </root>
    </mxGraphModel>
  </diagram>
</mxfile>
